<?xml version="1.0" standalone="no"?>
<!DOCTYPE svg PUBLIC "-//W3C//DTD SVG 20010904//EN"
 "http://www.w3.org/TR/2001/REC-SVG-20010904/DTD/svg10.dtd">
<svg version="1.0" xmlns="http://www.w3.org/2000/svg"
 width="130.000000pt" height="127.000000pt" viewBox="0 0 130.000000 127.000000"
 preserveAspectRatio="xMidYMid meet">

<g transform="translate(0.000000,127.000000) scale(0.100000,-0.100000)"
fill="#000000" stroke="none">
<path d="M393 1103 c-4 -21 -8 -78 -7 -128 0 -127 16 -176 126 -390 70 -136
71 -264 3 -365 l-34 -50 148 0 c147 0 148 0 159 25 23 50 43 205 36 279 -9 92
-25 140 -88 256 -95 176 -114 279 -71 393 7 16 -3 17 -128 17 l-136 0 -8 -37z"/>
<path d="M132 1103 l3 -28 107 -3 c99 -2 107 -1 113 18 3 11 3 24 0 30 -4 6
-53 10 -116 10 l-110 0 3 -27z"/>
<path d="M710 1100 c-27 -66 4 -197 90 -375 31 -66 64 -136 71 -155 22 -55 17
-210 -9 -303 -12 -42 -22 -82 -22 -87 0 -6 31 -10 73 -10 l73 0 18 48 c39 101
31 306 -16 410 -30 68 -71 146 -88 167 -5 6 -20 42 -35 80 -29 76 -35 133 -22
208 l8 47 -64 0 c-62 0 -65 -1 -77 -30z"/>
<path d="M902 1103 l3 -28 130 0 130 0 0 25 0 25 -133 3 -133 3 3 -28z"/>
<path d="M135 1040 c-3 -6 -3 -19 0 -30 6 -18 15 -20 110 -20 59 0 107 4 110
10 3 6 3 19 0 30 -6 18 -15 20 -110 20 -59 0 -107 -4 -110 -10z"/>
<path d="M907 1043 c-4 -3 -7 -17 -7 -30 0 -23 1 -23 128 -23 136 0 160 7 141
42 -9 16 -23 18 -133 18 -67 0 -126 -3 -129 -7z"/>
<path d="M134 946 c-3 -14 -3 -30 1 -35 4 -7 46 -11 104 -11 76 0 101 3 111
15 10 13 10 19 -5 35 -16 17 -31 20 -111 20 -91 0 -94 -1 -100 -24z"/>
<path d="M915 954 c-9 -9 -14 -23 -11 -31 3 -8 6 -17 6 -19 0 -2 56 -4 125 -4
107 0 127 2 132 16 3 9 2 24 -4 33 -15 24 -224 29 -248 5z"/>
</g>
</svg>
